<?xml version="1.0" standalone="no"?><!DOCTYPE svg PUBLIC "-//W3C//DTD SVG 1.1//EN" "http://www.w3.org/Graphics/SVG/1.1/DTD/svg11.dtd"><svg t="1662342968498" class="icon" viewBox="0 0 1200 1024" version="1.1" xmlns="http://www.w3.org/2000/svg" p-id="2073" xmlns:xlink="http://www.w3.org/1999/xlink" width="234.375" height="200"><path d="M921.45907 0.228221v78.716961l200.821731 198.887654-112.240974 112.240974a77.363107 77.363107 0 0 0-53.187135-19.727592 79.877408 79.877408 0 0 0-80.715508 80.715508v415.439883a78.974838 78.974838 0 0 1-78.716962 78.78143H403.642009a79.039307 79.039307 0 0 1-78.78143-78.78143V451.061726a79.812938 79.812938 0 0 0-80.715508-80.715508 83.810032 83.810032 0 0 0-53.122667 19.727592L78.78143 277.832836l198.823185-198.887654h49.254511l1.934078 1.998547a327.439349 327.439349 0 0 0 271.737912 135.836722 322.346278 322.346278 0 0 0 271.673443-135.836722 1.934078 1.934078 0 0 1 1.998547-1.998547h47.255964V0.228221M328.793204 0.228221h-43.258871a75.944783 75.944783 0 0 0-61.052385 23.595748L23.660217 222.711622a76.073722 76.073722 0 0 0 0 110.242427l116.04466 116.04466a71.302997 71.302997 0 0 0 102.377178 0h1.934077c1.998547 0 1.998547 0 1.998547 1.934078v415.439883a157.949676 157.949676 0 0 0 157.498392 157.498391h393.778213a157.949676 157.949676 0 0 0 157.498391-157.498391V450.932787c0-1.934078 0-1.934078 1.934078-1.934078h1.998547a74.977744 74.977744 0 0 0 51.188589 21.66167 71.496404 71.496404 0 0 0 51.188589-21.66167l116.04466-116.04466a76.20266 76.20266 0 0 0 0-110.242427L978.256484 23.823969A78.78143 78.78143 0 0 0 921.201193 0.228221h-49.254511a79.232715 79.232715 0 0 0-66.919087 37.392168A246.594903 246.594903 0 0 1 598.274692 138.06349 251.816912 251.816912 0 0 1 391.715197 37.620389 70.916181 70.916181 0 0 0 328.793204 0.228221z" p-id="2074"></path></svg>