<?xml version="1.0" standalone="no"?><!DOCTYPE svg PUBLIC "-//W3C//DTD SVG 1.1//EN" "http://www.w3.org/Graphics/SVG/1.1/DTD/svg11.dtd"><svg t="1661498972259" class="icon" viewBox="0 0 1024 1024" version="1.1" xmlns="http://www.w3.org/2000/svg" p-id="16837" xmlns:xlink="http://www.w3.org/1999/xlink" width="200" height="200"><path d="M96.896 160.928l0.896 0.032c30.272 1.696 61.664 5.664 94.208 11.872V480l64-64 64 64V208.352c51.008 20.16 104.32 49.6 160 88.48V768a32 32 0 0 0 63.776 3.744L544 768V296.8c73.408-51.2 142.72-86.144 208-104.8 61.696-17.632 119.776-27.968 174.208-31.04a32 32 0 0 1 33.728 30.144L960 192.96v575.808a32 32 0 0 1-30.56 31.968c-59.136 2.656-118.304 13.12-177.44 31.296-69.344 21.344-138.656 53.344-208 96h-64c-69.344-42.656-138.656-74.656-208-96a710.592 710.592 0 0 0-177.44-31.296 32 32 0 0 1-30.56-32V192.96a32 32 0 0 1 28.256-31.808l4.64-0.192z" fill="#B19C4A" p-id="16838"></path></svg>