<?xml version="1.0" standalone="no"?><!DOCTYPE svg PUBLIC "-//W3C//DTD SVG 1.1//EN" "http://www.w3.org/Graphics/SVG/1.1/DTD/svg11.dtd"><svg t="1661499047099" class="icon" viewBox="0 0 1024 1024" version="1.1" xmlns="http://www.w3.org/2000/svg" p-id="20253" xmlns:xlink="http://www.w3.org/1999/xlink" width="200" height="200"><path d="M0.85072 3.135755h1020.864246v1020.864245H0.85072z" fill="#F47E8A" p-id="20254"></path><path d="M340.619863 652.500695c0-0.137817-0.044237-0.204173-0.044238-0.343691-1.325422-49.317952-8.845789-150.732307 19.724799-236.969814 49.848801-150.480494 169.722084-187.643355 169.722084-187.643355s-67.628853-21.75802-155.851942-27.587155c-70.029586-4.616008-164.354039 10.24097-164.354039 10.24097s-24.456504 260.347606 125.613942 436.659368c1.48876 1.757588 3.293989 3.678514 5.189394 5.643677z" fill="#FCFCFC" p-id="20255"></path><path d="M357.624058 664.795304s229.059818 35.611148 365.072964-99.740138c136.011445-135.347883 99.306271-354.857516 99.306271-354.857516s-240.668746-31.60936-364.155888 91.28568c-123.488843 122.893339-100.223347 363.311973-100.223347 363.311974zM358.753815 671.288c0.187158 0.170144 0.355601 0.348795 0.539356 0.520641 0.632936 0.076565 1.007253 0.095281 1.007253 0.095281-5.507563-5.505861-13.393739-12.844174-19.700979-19.401525" fill="#FCFCFC" p-id="20256"></path><path d="M380.047341 691.649138h0.501925c-0.983433-0.845616-2.011103-1.597653-2.994535-2.446672-7.426787-6.373596-10.215448-10.215448-17.254307-17.300246 0 0-0.010209 0.326677 0.01191 0.889854M832.542015 641.43793c-6.94528-72.794426-27.495277-147.16779-27.495277-147.16779s-40.659321 107.170328-168.265651 157.886864c-92.864618 36.934868-203.759399 40.819257-256.235224 39.495537 175.780913 148.925378 441.479549 130.733577 441.479549 130.733576s17.693279-105.729208 10.516603-180.948187z" fill="#FCFCFC" p-id="20257"></path></svg>