<?xml version="1.0" standalone="no"?><!DOCTYPE svg PUBLIC "-//W3C//DTD SVG 1.1//EN" "http://www.w3.org/Graphics/SVG/1.1/DTD/svg11.dtd"><svg t="1660306040652" class="icon" viewBox="0 0 1024 1024" version="1.1" xmlns="http://www.w3.org/2000/svg" p-id="7371" xmlns:xlink="http://www.w3.org/1999/xlink" width="200" height="200"><defs><style type="text/css">@font-face { font-family: feedback-iconfont; src: url("//at.alicdn.com/t/font_1031158_u69w8yhxdu.woff2?t=1630033759944") format("woff2"), url("//at.alicdn.com/t/font_1031158_u69w8yhxdu.woff?t=1630033759944") format("woff"), url("//at.alicdn.com/t/font_1031158_u69w8yhxdu.ttf?t=1630033759944") format("truetype"); }
</style></defs><path d="M822.665529 156.952658 636.932384 156.952658c-18.196431-51.481512-67.0153-88.76158-124.932384-88.76158s-106.735953 37.280068-124.932384 88.76158L201.333448 156.952658c-49.040926 0-88.76158 39.720653-88.76158 88.76158l0 621.332081c0 49.040926 39.720653 88.76158 88.76158 88.76158l621.332081 0c49.040926 0 88.76158-39.720653 88.76158-88.76158L911.427108 245.714238C911.427108 196.673311 871.706455 156.952658 822.665529 156.952658zM512 156.952658c24.409946 0 44.38079 19.74981 44.38079 44.38079s-19.971867 44.38079-44.38079 44.38079c-24.409946 0-44.38079-19.74981-44.38079-44.38079S487.590054 156.952658 512 156.952658zM600.76158 778.284739 290.095028 778.284739l0-88.76158 310.666552 0L600.76158 778.284739zM733.903949 600.76158 290.095028 600.76158l0-88.76158 443.808922 0L733.903949 600.76158zM733.903949 423.23842 290.095028 423.23842l0-88.76158 443.808922 0L733.903949 423.23842z" p-id="7372"></path></svg>