<?xml version="1.0" standalone="no"?><!DOCTYPE svg PUBLIC "-//W3C//DTD SVG 1.1//EN" "http://www.w3.org/Graphics/SVG/1.1/DTD/svg11.dtd"><svg t="1663151992048" class="icon" viewBox="0 0 1024 1024" version="1.1" xmlns="http://www.w3.org/2000/svg" p-id="6753" xmlns:xlink="http://www.w3.org/1999/xlink" width="200" height="200"><path d="M512 960C264.96 960 64 759.04 64 512S264.96 64 512 64 960 264.96 960 512 759.04 960 512 960z m0-853.333333c-223.573333 0-405.333333 181.76-405.333333 405.333333s181.76 405.333333 405.333333 405.333333 405.333333-181.76 405.333333-405.333333-181.76-405.333333-405.333333-405.333333z" fill="#ffffff" p-id="6754"></path><path d="M531.2 768h-2.56a21.76 21.76 0 0 1-18.346667-17.493333L446.72 371.2l-70.4 235.093333c-2.56 8.96-11.093333 15.36-20.48 15.36H234.666667c-11.946667 0-21.333333-9.386667-21.333334-21.333333s9.386667-21.333333 21.333334-21.333333h105.386666l92.16-307.626667c2.986667-9.813333 12.373333-15.786667 21.76-15.36a21.333333 21.333333 0 0 1 19.626667 17.92l66.56 398.506667 68.266667-155.733334a21.589333 21.589333 0 0 1 34.986666-6.4l67.413334 68.693334h78.08c11.946667 0 21.333333 9.386667 21.333333 21.333333s-9.386667 21.333333-21.333333 21.333333h-87.04c-5.546667 0-11.093333-2.133333-15.36-6.4l-51.626667-52.48-84.48 192.853334c-2.986667 7.253333-11.093333 12.373333-19.2 12.373333z" fill="#ffffff" p-id="6755"></path></svg>